<svg xmlns="http://www.w3.org/2000/svg" viewBox="0 0 64 64">
  <rect width="64" height="64" rx="16" fill="#0f172a"/>
  <path fill="#10b981" d="M43.5 8.5c-5.8.7-10.3 3.8-12.5 8.9 5.7.3 10.4-2.9 12.5-8.9Z"/>
  <path fill="#6366f1" d="M20 14h17.1c7.7 0 12.5 4.3 12.5 10.6 0 3.7-1.7 6.6-4.7 8.4 4.2 1.6 6.6 5.1 6.6 9.6 0 7.4-5.5 12.4-13.9 12.4H20V14Zm16 16.3c3.7 0 5.8-1.8 5.8-4.8s-2.1-4.7-5.8-4.7h-8.2v9.5H36Zm1.3 17.9c4 0 6.4-2 6.4-5.4 0-3.3-2.4-5.3-6.4-5.3h-9.5v10.7h9.5Z"/>
  <path fill="#f8fafc" d="M28.7 20.8h7.2c3.7 0 5.8 1.7 5.8 4.7s-2.1 4.8-5.8 4.8h-7.2v-9.5Zm0 16.7h8.6c4 0 6.4 2 6.4 5.3 0 3.4-2.4 5.4-6.4 5.4h-8.6V37.5Z"/>
</svg>
